<?xml version="1.0" encoding="UTF-8" standalone="no"?>
<!-- Uploaded to: SVG Repo, www.svgrepo.com, Generator: SVG Repo Mixer Tools -->

<svg
   version="1.1"
   id="Capa_1"
   viewBox="0 0 455 455"
   xml:space="preserve"
   width="512"
   height="512"
   sodipodi:docname="grades-svgrepo-com (1).svg"
   inkscape:version="1.3 (0e150ed6c4, 2023-07-21)"
   xmlns:inkscape="http://www.inkscape.org/namespaces/inkscape"
   xmlns:sodipodi="http://sodipodi.sourceforge.net/DTD/sodipodi-0.dtd"
   xmlns="http://www.w3.org/2000/svg"
   xmlns:svg="http://www.w3.org/2000/svg"><defs
   id="defs10" /><sodipodi:namedview
   id="namedview10"
   pagecolor="#ffffff"
   bordercolor="#000000"
   borderopacity="0.25"
   inkscape:showpageshadow="2"
   inkscape:pageopacity="0.0"
   inkscape:pagecheckerboard="0"
   inkscape:deskcolor="#d1d1d1"
   showgrid="false"
   inkscape:zoom="1.5175781"
   inkscape:cx="255.67053"
   inkscape:cy="256"
   inkscape:window-width="1920"
   inkscape:window-height="991"
   inkscape:window-x="-9"
   inkscape:window-y="-9"
   inkscape:window-maximized="1"
   inkscape:current-layer="Capa_1" />&#10;<circle
   style="fill:#50e3c2;stroke-width:0.888672"
   id="path11"
   cx="218.7162"
   cy="226.32883"
   r="160.74324" /><g
   id="g10"
   transform="matrix(0.44787645,0,0,0.44916345,113.60362,120.63064)">&#10;	<polygon
   style="fill:#c1e8e6"
   points="0,169.46 227.5,377.23 455,169.46 "
   id="polygon1" />&#10;	<polygon
   style="fill:#f2ebd9"
   points="60,216.34 60,0 227.5,0 237.5,367.23 "
   id="polygon2" />&#10;	<polygon
   style="fill:#ffcc75"
   points="227.5,0 395,0 395,216.34 227.5,367.23 "
   id="polygon3" />&#10;	<polygon
   style="fill:#98d9d5"
   points="455,455 455,169.46 272.29,312.23 272.29,435 "
   id="polygon4" />&#10;	<polygon
   style="fill:#98d9d5"
   points="182.71,435 182.71,312.23 0,169.46 0,455 "
   id="polygon5" />&#10;	<path
   style="fill:#f2484b"
   d="m 363.25,101.372 h -12.5 v -12.5 c 0,-4.143 -3.357,-7.5 -7.5,-7.5 -4.143,0 -7.5,3.357 -7.5,7.5 v 12.5 h -12.5 c -4.143,0 -7.5,3.357 -7.5,7.5 0,4.143 3.357,7.5 7.5,7.5 h 12.5 v 12.5 c 0,4.143 3.357,7.5 7.5,7.5 4.143,0 7.5,-3.357 7.5,-7.5 v -12.5 h 12.5 c 4.143,0 7.5,-3.357 7.5,-7.5 0,-4.143 -3.357,-7.5 -7.5,-7.5 z"
   id="path5" />&#10;	<path
   style="fill:#f2484b"
   d="m 317.564,132.804 c -0.015,-0.038 -0.03,-0.075 -0.046,-0.112 l -19.339,-46.69 c -1.16,-2.803 -3.896,-4.63 -6.929,-4.63 -3.033,0 -5.769,1.827 -6.929,4.63 l -19.346,46.705 c -0.011,0.025 -0.021,0.05 -0.031,0.076 l -12.623,30.475 c -1.586,3.827 0.231,8.214 4.059,9.799 3.826,1.589 8.214,-0.231 9.799,-4.059 l 10.703,-25.84 h 28.736 l 10.703,25.84 c 1.196,2.889 3.988,4.632 6.932,4.632 0.956,0 1.929,-0.185 2.867,-0.573 3.827,-1.585 5.645,-5.972 4.059,-9.799 z m -34.469,-4.646 8.155,-19.688 8.155,19.688 z"
   id="path6" />&#10;	<path
   style="fill:#6da8d6"
   d="M 177.5,67.5 H 110 c -4.143,0 -7.5,-3.357 -7.5,-7.5 0,-4.143 3.357,-7.5 7.5,-7.5 h 67.5 c 4.143,0 7.5,3.357 7.5,7.5 0,4.143 -3.357,7.5 -7.5,7.5 z"
   id="path7" />&#10;	<path
   style="fill:#6da8d6"
   d="M 177.5,112.5 H 110 c -4.143,0 -7.5,-3.357 -7.5,-7.5 0,-4.143 3.357,-7.5 7.5,-7.5 h 67.5 c 4.143,0 7.5,3.357 7.5,7.5 0,4.143 -3.357,7.5 -7.5,7.5 z"
   id="path8" />&#10;	<path
   style="fill:#6da8d6"
   d="M 177.5,157.5 H 110 c -4.143,0 -7.5,-3.357 -7.5,-7.5 0,-4.143 3.357,-7.5 7.5,-7.5 h 67.5 c 4.143,0 7.5,3.357 7.5,7.5 0,4.143 -3.357,7.5 -7.5,7.5 z"
   id="path9" />&#10;	<path
   style="fill:#6da8d6"
   d="M 177.5,202.5 H 110 c -4.143,0 -7.5,-3.357 -7.5,-7.5 0,-4.143 3.357,-7.5 7.5,-7.5 h 67.5 c 4.143,0 7.5,3.357 7.5,7.5 0,4.143 -3.357,7.5 -7.5,7.5 z"
   id="path10" />&#10;	<polygon
   style="fill:#c1e8e6"
   points="227.5,347.23 182.71,312.23 0,455 455,455 272.29,312.23 "
   id="polygon10" />&#10;</g>&#10;&#10;&#10;&#10;&#10;&#10;&#10;&#10;&#10;&#10;&#10;&#10;&#10;&#10;&#10;&#10;</svg>
