<?xml version="1.0" encoding="UTF-8" standalone="no"?>
<!-- Uploaded to: SVG Repo, www.svgrepo.com, Generator: SVG Repo Mixer Tools -->

<svg
   width="800px"
   height="800px"
   viewBox="0 0 1024 1024"
   class="icon"
   version="1.1"
   id="svg6"
   sodipodi:docname="home 1.svg"
   inkscape:version="1.3 (0e150ed6c4, 2023-07-21)"
   xmlns:inkscape="http://www.inkscape.org/namespaces/inkscape"
   xmlns:sodipodi="http://sodipodi.sourceforge.net/DTD/sodipodi-0.dtd"
   xmlns="http://www.w3.org/2000/svg"
   xmlns:svg="http://www.w3.org/2000/svg">
  <defs
     id="defs6" />
  <sodipodi:namedview
     id="namedview6"
     pagecolor="#ffffff"
     bordercolor="#000000"
     borderopacity="0.25"
     inkscape:showpageshadow="2"
     inkscape:pageopacity="0.0"
     inkscape:pagecheckerboard="0"
     inkscape:deskcolor="#d1d1d1"
     inkscape:zoom="0.97125"
     inkscape:cx="399.4852"
     inkscape:cy="400"
     inkscape:window-width="1920"
     inkscape:window-height="991"
     inkscape:window-x="-9"
     inkscape:window-y="-9"
     inkscape:window-maximized="1"
     inkscape:current-layer="svg6" />
  <circle
     style="fill:#50e3c2;stroke-width:1.28"
     id="path7"
     cx="511.34103"
     cy="539.01672"
     r="363.73746" />
  <path
     d="m 712.20518,718.04437 c 0,11.68889 -10.25934,20.87302 -23.67538,20.87302 H 324.71818 c -12.62687,0 -23.67538,-9.18413 -23.67538,-20.87302 V 428.32688 c 0,-11.68888 10.25933,-20.87301 23.67538,-20.87301 H 688.5298 c 12.62686,0 23.67538,9.18413 23.67538,20.87301 z"
     fill="#e1e0a6"
     id="path1"
     style="stroke-width:0.634162" />
  <path
     d="M 688.5298,747.2666 H 324.71818 c -17.36194,0 -31.56717,-13.35873 -31.56717,-29.22223 V 428.32688 c 0,-15.86349 14.20523,-29.22222 31.56717,-29.22222 H 688.5298 c 17.36194,0 31.56716,13.35873 31.56716,29.22222 v 289.71749 c 0,15.8635 -14.20522,29.22223 -31.56716,29.22223 z M 324.71818,415.80306 c -8.68097,0 -15.78358,5.84447 -15.78358,12.52382 v 289.71749 c 0,6.67937 7.10261,12.52382 15.78358,12.52382 H 688.5298 c 8.68096,0 15.78358,-5.84445 15.78358,-12.52382 V 428.32688 c 0,-6.67935 -7.10262,-12.52382 -15.78358,-12.52382 z"
     fill="#231c1c"
     id="path2"
     style="stroke-width:0.634162" />
  <path
     d="m 750.87495,479.25705 c 0,14.19364 -8.68097,25.88255 -19.72947,25.88255 L 506.2294,400.77451 281.31333,505.1396 c -11.04851,0 -19.72948,-11.68891 -19.72948,-25.88255 v -36.73651 c 0,-14.19366 8.68097,-25.88254 19.72948,-25.88254 L 506.2294,296.40942 731.14548,416.638 c 11.0485,0 19.72947,11.68888 19.72947,25.88254 z"
     fill="#6fb0be"
     id="path3"
     style="stroke-width:0.634162" />
  <path
     d="m 731.14548,513.4888 c -0.78919,0 -2.36755,0 -3.15672,-0.83492 L 506.2294,409.95862 284.47005,512.65388 c -0.78919,0.83492 -2.36755,0.83492 -3.15672,0.83492 -14.99442,0 -27.62128,-15.02858 -27.62128,-34.23175 v -36.73651 c 0,-18.36826 11.04851,-33.39683 25.25374,-34.23175 L 502.28351,288.89512 c 2.36753,-0.83492 4.73507,-0.83492 7.10261,0 l 223.33772,119.39367 c 14.20522,1.66983 25.25373,15.86349 25.25373,34.23175 v 36.73651 c 0.78918,18.36825 -11.04851,34.23175 -26.83209,34.23175 z M 506.2294,305.59353 285.25922,424.15228 c -0.78917,0.83492 -2.36753,0.83492 -3.15672,0.83492 -6.31343,0 -11.83768,8.34921 -11.83768,17.53334 v 36.73651 c 0,9.18412 4.73507,16.69841 10.25932,17.53334 L 503.86186,393.26021 c 2.36754,-0.83492 3.9459,-0.83492 6.31344,0 l 223.33771,103.53018 c 5.52426,-0.83493 10.25933,-8.34922 10.25933,-17.53334 v -36.73651 c 0,-10.01905 -5.52425,-17.53334 -11.83769,-17.53334 -1.57836,0 -2.36753,0 -3.94589,-0.83492 z"
     fill="#231c1c"
     id="path4"
     style="stroke-width:0.634162" />
  <path
     d="M 569.36373,739.75231 H 459.66783 V 600.32055 c 0,-11.68889 9.47014,-20.03809 20.51866,-20.03809 h 68.65858 c 11.04851,0 20.51866,8.3492 20.51866,20.03809 z"
     fill="#fde8c2"
     id="path5"
     style="stroke-width:0.634162" />
  <path
     d="m 569.36373,748.10152 h -109.6959 c -4.73508,0 -7.8918,-3.33968 -7.8918,-8.34921 V 600.32055 c 0,-15.86349 11.83769,-28.38731 28.41046,-28.38731 h 68.65858 c 15.78359,0 28.41046,11.6889 28.41046,28.38731 v 138.59684 c 0,5.00952 -3.15672,9.18413 -7.8918,9.18413 z M 467.55962,731.40311 h 93.91232 V 600.32055 c 0,-7.51429 -6.31343,-11.68889 -12.62687,-11.68889 h -68.65858 c -6.31344,0 -12.62687,3.33968 -12.62687,11.68889 z"
     fill="#231c1c"
     id="path6"
     style="stroke-width:0.634162" />
</svg>
