<?xml version="1.0" encoding="UTF-8" standalone="no"?>
<!-- Uploaded to: SVG Repo, www.svgrepo.com, Generator: SVG Repo Mixer Tools -->

<svg
   width="800px"
   height="800px"
   viewBox="0 0 1024 1024"
   class="icon"
   version="1.1"
   id="svg5"
   sodipodi:docname="bell.svg"
   inkscape:version="1.3 (0e150ed6c4, 2023-07-21)"
   xmlns:inkscape="http://www.inkscape.org/namespaces/inkscape"
   xmlns:sodipodi="http://sodipodi.sourceforge.net/DTD/sodipodi-0.dtd"
   xmlns="http://www.w3.org/2000/svg"
   xmlns:svg="http://www.w3.org/2000/svg">
  <defs
     id="defs5" />
  <sodipodi:namedview
     id="namedview5"
     pagecolor="#ffffff"
     bordercolor="#000000"
     borderopacity="0.25"
     inkscape:showpageshadow="2"
     inkscape:pageopacity="0.0"
     inkscape:pagecheckerboard="0"
     inkscape:deskcolor="#d1d1d1"
     showgrid="false"
     inkscape:zoom="0.97125"
     inkscape:cx="399.4852"
     inkscape:cy="331.01673"
     inkscape:window-width="1920"
     inkscape:window-height="991"
     inkscape:window-x="-9"
     inkscape:window-y="-9"
     inkscape:window-maximized="1"
     inkscape:current-layer="svg5" />
  <ellipse
     style="fill:#50e3c2;stroke-width:1.18069"
     id="path6"
     cx="520.56628"
     cy="438.85718"
     rx="295.20721"
     ry="300.47879" />
  <path
     d="m 520.93038,251.39568 c 4.17944,0 8.35889,0.21998 12.48334,0.60492 v -26.3965 c 0,-2.63965 -2.1997,-4.83936 -4.83935,-4.83936 H 513.2314 c -2.63965,0 -4.83936,2.19971 -4.83936,4.83936 v 26.3965 c 4.17944,-0.38494 8.35889,-0.60492 12.53834,-0.60492 z m 36.57015,364.43674 h -73.14031 c 3.7945,16.71779 18.75252,29.25612 36.57016,29.25612 17.81764,0 32.83065,-12.53833 36.57015,-29.25612 z"
     fill="#ffbc00"
     id="path1"
     style="stroke-width:0.549927" />
  <path
     d="m 566.68432,599.3346 h -91.50788 c -4.5644,0 -8.24891,3.68452 -8.24891,8.24891 0,29.75106 24.19679,54.00285 54.00285,54.00285 29.80605,0 54.00285,-24.1968 54.00285,-54.00285 0,-4.56439 -3.68452,-8.24891 -8.24891,-8.24891 z m -82.3241,16.49782 h 73.14031 c -3.79449,16.71779 -18.75251,29.25612 -36.57015,29.25612 -17.81764,0 -32.83065,-12.53833 -36.57016,-29.25612 z"
     fill="#46287c"
     id="path2"
     style="stroke-width:0.549927" />
  <path
     d="m 624.53666,401.36082 -103.4413,103.38631 h 43.22427 L 624.53666,444.5851 Z M 497.77844,504.74713 624.53666,377.98892 v -17.04774 c -0.21997,-51.30821 -46.57884,-93.04768 -103.60628,-93.04768 -57.13744,0 -103.60628,41.90445 -103.60628,93.37763 v 143.476 c 0.43994,0 0.87988,-0.055 1.31982,-0.055 h 79.13452 z M 463.24302,322.39128 c 10.50361,0 19.08247,8.52387 19.08247,19.08247 0,10.50361 -8.52387,19.08248 -19.08247,19.08248 -10.5586,0 -19.08248,-8.52387 -19.08248,-19.08248 0,-10.5586 8.52388,-19.08247 19.08248,-19.08247 z m 124.44852,182.35585 h 35.52529 c 0.43994,0 0.87988,0 1.31983,0.055 v -36.90011 z m 35.52529,16.49782 H 418.64392 c -8.52387,0 -25.07667,8.57886 -37.01009,22.38203 -9.78871,11.38349 -11.05354,19.57741 -10.17366,21.61214 0.16498,0.38495 1.48481,0.82489 3.51954,0.82489 h 291.84635 c 2.03473,0 3.29956,-0.43994 3.51953,-0.82489 0.93488,-2.03473 -0.32996,-10.22865 -10.17365,-21.61214 -11.87843,-13.80317 -28.43124,-22.38203 -36.95511,-22.38203 z"
     fill="#ffbc00"
     id="path3"
     style="stroke-width:0.549927" />
  <path
     d="m 672.71028,532.9034 c -8.90882,-10.39362 -20.62227,-18.91749 -31.67581,-23.75685 V 361.32613 c 0,-29.4761 -12.59333,-57.19243 -35.4703,-77.97968 -15.61793,-14.18812 -34.7554,-23.97682 -55.65263,-28.7062 V 225.6041 c 0,-11.76844 -9.56873,-21.33717 -21.33717,-21.33717 H 513.2314 c -11.76844,0 -21.33718,9.56873 -21.33718,21.33717 v 29.03615 c -20.84224,4.72938 -39.9797,14.51808 -55.65263,28.7062 -22.87697,20.78725 -35.4703,48.44859 -35.4703,77.97968 v 147.82042 c -11.10853,4.83936 -22.76698,13.41822 -31.6758,23.75685 -12.53834,14.51808 -17.26772,29.20114 -12.64833,39.2648 1.75977,3.90449 6.54413,10.44862 18.47755,10.44862 h 291.84635 c 11.93342,0 16.71779,-6.54413 18.47756,-10.44862 4.72937,-10.06366 0,-24.74672 -12.53834,-39.2648 z m -2.36469,32.39071 c -0.16498,0.38495 -1.4848,0.82489 -3.51953,0.82489 H 374.97971 c -2.03473,0 -3.29957,-0.43994 -3.51954,-0.82489 -0.93487,-2.03473 0.32996,-10.22864 10.17366,-21.61214 11.93342,-13.85816 28.48622,-22.38203 37.01009,-22.38203 h 204.57291 c 8.52387,0 25.07668,8.57886 37.0101,22.38203 9.7887,11.3285 11.05354,19.57741 10.11866,21.61214 z m -149.25023,-60.54698 103.4413,-103.4413 v 43.22428 l -60.21703,60.21702 z m 102.12147,0 h -35.52529 l 36.84512,-36.84512 v 36.90011 c -0.43995,0 -0.87989,-0.055 -1.31983,-0.055 z M 513.28639,220.76474 h 15.34297 c 2.63965,0 4.83936,2.19971 4.83936,4.83936 v 26.3965 c -4.12446,-0.38494 -8.3039,-0.60492 -12.48335,-0.60492 -4.17945,0 -8.35889,0.21998 -12.48335,0.60492 v -26.3965 c -0.055,-2.58466 2.14472,-4.83936 4.78437,-4.83936 z M 417.3241,361.27113 c 0,-51.47318 46.46884,-93.37763 103.60628,-93.37763 57.02744,0 103.38631,41.73947 103.60628,93.04768 v 17.04774 L 497.77844,504.74713 h -79.13452 c -0.43994,0 -0.87988,0 -1.31982,0.055 z"
     fill="#46287c"
     id="path4"
     style="stroke-width:0.549927" />
  <path
     d="m 463.24302,341.47375 m -19.08248,0 a 19.082475,19.082475 0 1 0 38.16495,0 19.082475,19.082475 0 1 0 -38.16495,0 z"
     fill="#ffffff"
     id="path5"
     style="stroke-width:0.549927" />
</svg>
