<?xml version="1.0" encoding="UTF-8" standalone="no"?>
<!-- Uploaded to: SVG Repo, www.svgrepo.com, Generator: SVG Repo Mixer Tools -->

<svg
   version="1.1"
   id="Capa_1"
   viewBox="0 0 470 470"
   xml:space="preserve"
   sodipodi:docname="book with pencil.svg"
   inkscape:version="1.3 (0e150ed6c4, 2023-07-21)"
   xmlns:inkscape="http://www.inkscape.org/namespaces/inkscape"
   xmlns:sodipodi="http://sodipodi.sourceforge.net/DTD/sodipodi-0.dtd"
   xmlns="http://www.w3.org/2000/svg"
   xmlns:svg="http://www.w3.org/2000/svg"><defs
   id="defs17" /><sodipodi:namedview
   id="namedview17"
   pagecolor="#ffffff"
   bordercolor="#000000"
   borderopacity="0.25"
   inkscape:showpageshadow="2"
   inkscape:pageopacity="0.0"
   inkscape:pagecheckerboard="0"
   inkscape:deskcolor="#d1d1d1"
   showgrid="false"
   inkscape:zoom="1.6531915"
   inkscape:cx="234.69755"
   inkscape:cy="235"
   inkscape:window-width="1920"
   inkscape:window-height="991"
   inkscape:window-x="-9"
   inkscape:window-y="-9"
   inkscape:window-maximized="1"
   inkscape:current-layer="Capa_1" />&#10;<circle
   style="fill:#50e3c2"
   id="path17"
   cx="240.14157"
   cy="226.83398"
   r="177.83784" /><g
   id="g17"
   transform="matrix(0.48519949,0,0,0.48519949,125.21236,124.43913)">&#10;	<path
   style="fill:#ffffff"
   d="M 383.75,334.786 H 425 V 28.251 H 263.732 c -9.056,0 -17.462,4.514 -22.485,12.074 -1.391,2.092 -3.735,3.349 -6.247,3.349 -2.512,0 -4.856,-1.257 -6.246,-3.349 C 223.729,32.764 215.323,28.25 206.268,28.25 H 45 v 306.535 h 161.268 c 10.815,0 21.033,4.131 28.731,11.364 7.698,-7.233 17.916,-11.364 28.733,-11.364 h 20.018 c 4.142,0 7.499,3.357 7.5,7.498 h 15 V 118.749 c 0,-0.25 0.013,-0.5 0.038,-0.747 0.02,-0.204 0.054,-0.403 0.09,-0.601 0.008,-0.042 0.011,-0.084 0.019,-0.126 0.103,-0.514 0.257,-1.008 0.459,-1.478 L 326.83,67.865 c 1.164,-2.795 3.896,-4.615 6.923,-4.615 3.028,0 5.759,1.821 6.923,4.616 l 19.968,47.927 c 0.203,0.471 0.358,0.967 0.461,1.483 0.008,0.038 0.01,0.077 0.018,0.115 0.037,0.202 0.071,0.405 0.091,0.612 0.025,0.248 0.038,0.497 0.038,0.747 v 223.535 h 15 c -0.001,-4.142 3.356,-7.499 7.498,-7.499 z m -191.285,-25 H 77.5 c -4.143,0 -7.5,-3.358 -7.5,-7.5 v -63.395 c 0,-4.142 3.357,-7.5 7.5,-7.5 4.143,0 7.5,3.358 7.5,7.5 v 55.895 h 16.655 v -25.895 c 0,-4.142 3.357,-7.5 7.5,-7.5 4.143,0 7.5,3.358 7.5,7.5 v 25.895 h 16.654 v -55.895 c 0,-4.142 3.357,-7.5 7.5,-7.5 4.143,0 7.5,3.358 7.5,7.5 v 55.895 h 16.655 v -25.895 c 0,-4.142 3.357,-7.5 7.5,-7.5 4.143,0 7.5,3.358 7.5,7.5 v 25.895 h 12.5 c 4.143,0 7.5,3.358 7.5,7.5 0,4.142 -3.357,7.5 -7.499,7.5 z m 0,-99.023 H 77.5 c -4.143,0 -7.5,-3.358 -7.5,-7.5 0,-4.142 3.357,-7.5 7.5,-7.5 h 114.965 c 4.143,0 7.5,3.358 7.5,7.5 0,4.142 -3.358,7.5 -7.5,7.5 z m 0,-35.628 H 77.5 c -4.143,0 -7.5,-3.358 -7.5,-7.5 0,-4.142 3.357,-7.5 7.5,-7.5 h 114.965 c 4.143,0 7.5,3.358 7.5,7.5 0,4.142 -3.358,7.5 -7.5,7.5 z M 70,132.007 c 0,-4.142 3.357,-7.5 7.5,-7.5 h 57.482 c 4.143,0 7.5,3.358 7.5,7.5 0,4.142 -3.357,7.5 -7.5,7.5 H 77.5 c -4.143,0 -7.5,-3.358 -7.5,-7.5 z M 192.465,103.879 H 77.5 c -4.143,0 -7.5,-3.358 -7.5,-7.5 0,-4.142 3.357,-7.5 7.5,-7.5 h 114.965 c 4.143,0 7.5,3.358 7.5,7.5 0,4.142 -3.358,7.5 -7.5,7.5 z m 0,-35.628 H 77.5 c -4.143,0 -7.5,-3.358 -7.5,-7.5 0,-4.142 3.357,-7.5 7.5,-7.5 h 114.965 c 4.143,0 7.5,3.358 7.5,7.5 0,4.142 -3.358,7.5 -7.5,7.5 z M 242.5,319.023 c 0,4.142 -3.357,7.5 -7.5,7.5 -4.143,0 -7.5,-3.358 -7.5,-7.5 V 66.175 c 0,-4.142 3.357,-7.5 7.5,-7.5 4.143,0 7.5,3.358 7.5,7.5 z"
   id="path1" />&#10;	<path
   style="fill:#c1e8e6"
   d="m 206.268,364.786 c 7.595,0 14.892,2.045 21.232,5.763 v -10.42 c -5.104,-6.509 -12.889,-10.343 -21.232,-10.343 H 37.5 v 15 z"
   id="path2" />&#10;	<path
   style="fill:#c1e8e6"
   d="m 383.75,364.786 h 48.75 v -15 h -48.75 c -4.143,0 -7.5,-3.358 -7.5,-7.5 0,-0.002 -15,-0.002 -15,-0.002 v 30 h 15 c 10e-4,-4.141 3.358,-7.498 7.5,-7.498 z"
   id="path3" />&#10;	<path
   style="fill:#c1e8e6"
   d="m 291.25,342.286 c 0,4.142 -3.357,7.5 -7.5,7.5 h -20.018 c -8.345,0 -16.13,3.834 -21.232,10.343 v 10.419 c 6.34,-3.718 13.636,-5.762 21.232,-5.762 h 20.018 c 4.142,0 7.499,3.357 7.5,7.498 h 15 v -30 c 0,0 -15,0 -15,0.002 z"
   id="path4" />&#10;	<path
   style="fill:#98d9d5"
   d="m 291.25,372.286 c 0,4.142 -3.357,7.5 -7.5,7.5 h -20.018 c -9.059,0 -17.465,4.509 -22.487,12.062 -0.166,0.247 -0.339,0.473 -0.524,0.691 -0.051,0.06 -0.105,0.115 -0.158,0.174 -0.137,0.152 -0.278,0.298 -0.427,0.438 -0.068,0.064 -0.136,0.127 -0.207,0.188 -0.156,0.136 -0.317,0.264 -0.484,0.387 -0.059,0.043 -0.115,0.089 -0.175,0.131 -0.233,0.162 -0.474,0.313 -0.725,0.448 -0.256,0.136 -0.509,0.25 -0.766,0.353 -0.065,0.026 -0.131,0.048 -0.197,0.072 -0.201,0.074 -0.406,0.14 -0.615,0.197 -0.08,0.022 -0.16,0.043 -0.24,0.062 -0.206,0.048 -0.414,0.087 -0.626,0.118 -0.078,0.011 -0.155,0.027 -0.234,0.036 -0.283,0.033 -0.57,0.053 -0.862,0.054 -0.299,0 -0.588,-0.021 -0.873,-0.054 -0.076,-0.009 -0.15,-0.023 -0.225,-0.034 -0.215,-0.031 -0.427,-0.07 -0.636,-0.12 -0.078,-0.019 -0.156,-0.039 -0.233,-0.06 -0.213,-0.057 -0.42,-0.124 -0.625,-0.199 -0.063,-0.023 -0.126,-0.044 -0.189,-0.069 -0.262,-0.104 -0.519,-0.22 -0.766,-0.352 -0.254,-0.136 -0.497,-0.288 -0.731,-0.451 -0.057,-0.039 -0.111,-0.083 -0.167,-0.125 -0.169,-0.125 -0.334,-0.255 -0.492,-0.394 -0.069,-0.06 -0.136,-0.122 -0.203,-0.184 -0.151,-0.142 -0.294,-0.29 -0.433,-0.444 -0.051,-0.056 -0.104,-0.11 -0.153,-0.168 -0.186,-0.219 -0.361,-0.447 -0.521,-0.686 -5.03,-7.559 -13.436,-12.069 -22.493,-12.069 H 37.5 c -4.143,0 -7.5,-3.358 -7.5,-7.5 0,-4.142 3.357,-7.5 7.5,-7.5 v -15 c -4.143,0 -7.5,-3.358 -7.5,-7.5 V 88.251 H 15 v 306.535 h 191.268 c 3.835,0 7.411,1.825 9.676,4.909 l 6.432,7.502 25.254,-0.002 6.429,-7.502 c 2.261,-3.083 5.836,-4.907 9.675,-4.907 h 42.518 v -22.502 c -0.002,0 -15.002,0 -15.002,0.002 z"
   id="path5" />&#10;	<path
   style="fill:#98d9d5"
   d="m 440,342.286 c 0,4.142 -3.357,7.5 -7.5,7.5 v 15 c 4.143,0 7.5,3.358 7.5,7.5 0,4.142 -3.357,7.5 -7.5,7.5 h -48.75 c -4.143,0 -7.5,-3.358 -7.5,-7.5 0,-0.002 -15,-0.002 -15,-0.002 v 22.502 H 455 V 88.251 h -15 z"
   id="path6" />&#10;	<path
   style="fill:#082947"
   d="m 192.465,294.786 h -12.5 v -25.895 c 0,-4.142 -3.357,-7.5 -7.5,-7.5 -4.143,0 -7.5,3.358 -7.5,7.5 v 25.895 H 148.31 v -55.895 c 0,-4.142 -3.357,-7.5 -7.5,-7.5 -4.143,0 -7.5,3.358 -7.5,7.5 v 55.895 h -16.654 v -25.895 c 0,-4.142 -3.357,-7.5 -7.5,-7.5 -4.143,0 -7.5,3.358 -7.5,7.5 v 25.895 H 85 v -55.895 c 0,-4.142 -3.357,-7.5 -7.5,-7.5 -4.143,0 -7.5,3.358 -7.5,7.5 v 63.395 c 0,4.142 3.357,7.5 7.5,7.5 h 114.965 c 4.143,0 7.5,-3.358 7.5,-7.5 0,-4.142 -3.358,-7.5 -7.5,-7.5 z"
   id="path7" />&#10;	<path
   style="fill:#082947"
   d="M 192.465,53.251 H 77.5 c -4.143,0 -7.5,3.358 -7.5,7.5 0,4.142 3.357,7.5 7.5,7.5 h 114.965 c 4.143,0 7.5,-3.358 7.5,-7.5 0,-4.142 -3.358,-7.5 -7.5,-7.5 z"
   id="path8" />&#10;	<path
   style="fill:#082947"
   d="M 192.465,88.879 H 77.5 c -4.143,0 -7.5,3.358 -7.5,7.5 0,4.142 3.357,7.5 7.5,7.5 h 114.965 c 4.143,0 7.5,-3.358 7.5,-7.5 0,-4.142 -3.358,-7.5 -7.5,-7.5 z"
   id="path9" />&#10;	<path
   style="fill:#082947"
   d="m 77.5,139.507 h 57.482 c 4.143,0 7.5,-3.358 7.5,-7.5 0,-4.142 -3.357,-7.5 -7.5,-7.5 H 77.5 c -4.143,0 -7.5,3.358 -7.5,7.5 0,4.142 3.357,7.5 7.5,7.5 z"
   id="path10" />&#10;	<path
   style="fill:#082947"
   d="M 192.465,160.135 H 77.5 c -4.143,0 -7.5,3.358 -7.5,7.5 0,4.142 3.357,7.5 7.5,7.5 h 114.965 c 4.143,0 7.5,-3.358 7.5,-7.5 0,-4.142 -3.358,-7.5 -7.5,-7.5 z"
   id="path11" />&#10;	<path
   style="fill:#082947"
   d="M 192.465,195.763 H 77.5 c -4.143,0 -7.5,3.358 -7.5,7.5 0,4.142 3.357,7.5 7.5,7.5 h 114.965 c 4.143,0 7.5,-3.358 7.5,-7.5 0,-4.142 -3.358,-7.5 -7.5,-7.5 z"
   id="path12" />&#10;	<path
   style="fill:#082947"
   d="m 235,58.675 c -4.143,0 -7.5,3.358 -7.5,7.5 v 252.848 c 0,4.142 3.357,7.5 7.5,7.5 4.143,0 7.5,-3.358 7.5,-7.5 V 66.175 c 0,-4.143 -3.357,-7.5 -7.5,-7.5 z"
   id="path13" />&#10;	<path
   style="fill:#082947"
   d="M 462.5,73.251 H 440 v -52.5 c 0,-4.142 -3.357,-7.5 -7.5,-7.5 H 263.732 c -10.816,0 -21.035,4.135 -28.732,11.373 -7.698,-7.238 -17.917,-11.373 -28.732,-11.373 H 37.5 c -4.143,0 -7.5,3.358 -7.5,7.5 v 52.5 H 7.5 c -4.143,0 -7.5,3.358 -7.5,7.5 v 321.535 c 0,4.142 3.357,7.5 7.5,7.5 h 197.337 l 8.396,9.793 c 1.425,1.662 3.505,2.618 5.694,2.618 l 32.152,-0.003 c 2.189,0 4.27,-0.957 5.694,-2.62 l 8.389,-9.789 h 41.087 v 27.463 c 0,10.752 8.748,19.5 19.502,19.5 h 16 c 10.751,0 19.498,-8.748 19.498,-19.5 V 409.785 H 462.5 c 4.143,0 7.5,-3.358 7.5,-7.5 V 80.751 c 0,-4.142 -3.357,-7.5 -7.5,-7.5 z M 455,394.786 H 361.25 V 118.749 c 0,-0.25 -0.013,-0.499 -0.038,-0.747 -0.021,-0.207 -0.054,-0.41 -0.091,-0.612 -0.007,-0.038 -0.01,-0.077 -0.018,-0.115 -0.103,-0.515 -0.258,-1.011 -0.461,-1.483 L 340.674,67.865 c -1.164,-2.795 -3.895,-4.616 -6.923,-4.616 -3.027,0 -5.759,1.82 -6.923,4.615 l -19.974,47.932 c -0.201,0.47 -0.356,0.964 -0.459,1.478 -0.008,0.042 -0.011,0.084 -0.019,0.126 -0.036,0.198 -0.07,0.398 -0.09,0.601 -0.025,0.248 -0.038,0.497 -0.038,0.747 V 394.785 H 263.73 c -3.839,0 -7.414,1.824 -9.675,4.907 l -6.429,7.502 -25.254,0.002 -6.432,-7.502 c -2.265,-3.084 -5.841,-4.909 -9.676,-4.909 H 15 V 88.251 h 15 v 254.035 c 0,4.142 3.357,7.5 7.5,7.5 h 168.768 c 8.344,0 16.128,3.834 21.232,10.343 v 10.42 c -6.34,-3.718 -13.637,-5.763 -21.232,-5.763 H 37.5 c -4.143,0 -7.5,3.358 -7.5,7.5 0,4.142 3.357,7.5 7.5,7.5 h 168.768 c 9.057,0 17.463,4.51 22.488,12.063 0.165,0.246 0.339,0.473 0.525,0.692 0.049,0.058 0.102,0.112 0.153,0.168 0.139,0.154 0.282,0.302 0.433,0.444 0.067,0.063 0.134,0.124 0.203,0.184 0.158,0.138 0.323,0.269 0.492,0.394 0.056,0.041 0.11,0.085 0.167,0.125 0.234,0.163 0.477,0.314 0.73,0.45 0.248,0.133 0.505,0.248 0.767,0.353 0.062,0.025 0.126,0.046 0.189,0.069 0.205,0.075 0.412,0.142 0.625,0.199 0.077,0.021 0.155,0.042 0.233,0.06 0.209,0.049 0.421,0.088 0.636,0.12 0.075,0.011 0.149,0.025 0.225,0.034 0.285,0.033 0.574,0.054 0.868,0.054 0.297,0 0.583,-0.021 0.867,-0.054 0.079,-0.009 0.156,-0.024 0.234,-0.036 0.211,-0.031 0.42,-0.07 0.626,-0.118 0.081,-0.019 0.16,-0.04 0.24,-0.062 0.209,-0.057 0.414,-0.123 0.615,-0.197 0.066,-0.024 0.132,-0.046 0.197,-0.072 0.258,-0.103 0.51,-0.217 0.753,-0.346 0.265,-0.141 0.506,-0.292 0.739,-0.454 0.06,-0.041 0.116,-0.087 0.175,-0.131 0.167,-0.123 0.328,-0.251 0.484,-0.387 0.07,-0.061 0.139,-0.124 0.207,-0.188 0.149,-0.14 0.291,-0.286 0.427,-0.438 0.053,-0.058 0.107,-0.114 0.158,-0.174 0.185,-0.218 0.358,-0.444 0.517,-0.682 5.029,-7.561 13.435,-12.071 22.494,-12.071 h 20.018 c 4.143,0 7.5,-3.358 7.5,-7.5 -10e-4,-4.143 -3.358,-7.5 -7.5,-7.5 h -20.018 c -7.596,0 -14.892,2.044 -21.232,5.762 v -10.419 c 5.102,-6.508 12.887,-10.343 21.232,-10.343 h 20.018 c 4.143,0 7.5,-3.358 7.5,-7.5 -10e-4,-4.143 -3.358,-7.5 -7.5,-7.5 h -20.018 c -10.817,0 -21.035,4.131 -28.733,11.364 -7.698,-7.232 -17.916,-11.364 -28.731,-11.364 H 45 V 28.251 h 161.268 c 9.056,0 17.461,4.514 22.486,12.075 1.39,2.092 3.734,3.349 6.246,3.349 2.512,0 4.856,-1.257 6.247,-3.349 5.023,-7.561 13.43,-12.074 22.485,-12.074 H 425 v 306.535 h -41.25 c -4.142,0 -7.499,3.357 -7.5,7.498 0,4.144 3.357,7.502 7.5,7.502 h 48.75 c 4.143,0 7.5,-3.358 7.5,-7.5 V 88.251 h 15 z m -113.248,46.963 h -16 c -2.44,0 -4.502,-2.061 -4.502,-4.5 v -13.5 h 25 v 13.5 c 0,2.439 -2.06,4.5 -4.498,4.5 z m -20.502,-33 v -15 h 25 v 15 z m 3.75,-297.5 8.751,-21 8.749,21 z m -3.75,15 h 25 v 252.5 h -25 z"
   id="path14" />&#10;	<path
   style="fill:#082947"
   d="m 376.25,372.284 c 0,4.144 3.357,7.502 7.5,7.502 h 48.75 c 4.143,0 7.5,-3.358 7.5,-7.5 0,-4.142 -3.357,-7.5 -7.5,-7.5 h -48.75 c -4.142,0 -7.499,3.357 -7.5,7.498 z"
   id="path15" />&#10;	<path
   style="fill:#f2484b"
   d="m 321.25,423.749 v 13.5 c 0,2.439 2.062,4.5 4.502,4.5 h 16 c 2.438,0 4.498,-2.061 4.498,-4.5 v -13.5 z"
   id="path16" />&#10;	<rect
   x="321.25"
   y="393.74899"
   style="fill:#6da8d6"
   width="25"
   height="15"
   id="rect16" />&#10;	<rect
   x="321.25"
   y="126.249"
   style="fill:#ffcc75"
   width="25"
   height="252.5"
   id="rect17" />&#10;	<polygon
   style="fill:#f2ebd9"
   points="342.5,111.249 333.751,90.249 325,111.249 "
   id="polygon17" />&#10;</g>&#10;</svg>
