<?xml version="1.0" encoding="UTF-8" standalone="no"?>
<!-- Uploaded to: SVG Repo, www.svgrepo.com, Generator: SVG Repo Mixer Tools -->

<svg
   version="1.1"
   id="Layer_1"
   viewBox="0 0 512 512"
   xml:space="preserve"
   sodipodi:docname="paper with pencil.svg"
   inkscape:version="1.3 (0e150ed6c4, 2023-07-21)"
   xmlns:inkscape="http://www.inkscape.org/namespaces/inkscape"
   xmlns:sodipodi="http://sodipodi.sourceforge.net/DTD/sodipodi-0.dtd"
   xmlns="http://www.w3.org/2000/svg"
   xmlns:svg="http://www.w3.org/2000/svg"><defs
   id="defs13" /><sodipodi:namedview
   id="namedview13"
   pagecolor="#ffffff"
   bordercolor="#000000"
   borderopacity="0.25"
   inkscape:showpageshadow="2"
   inkscape:pageopacity="0.0"
   inkscape:pagecheckerboard="0"
   inkscape:deskcolor="#d1d1d1"
   inkscape:zoom="0.75878906"
   inkscape:cx="51.397683"
   inkscape:cy="278.73359"
   inkscape:window-width="1920"
   inkscape:window-height="991"
   inkscape:window-x="-9"
   inkscape:window-y="-9"
   inkscape:window-maximized="1"
   inkscape:current-layer="Layer_1" />&#10;<circle
   style="fill:#50e3c2;stroke-width:0.936599"
   id="path14"
   cx="253.69371"
   cy="244.46848"
   r="214.15701" /><rect
   y="124.67101"
   style="fill:#cfdce5;stroke-width:0.495848"
   width="183.93806"
   height="245.74544"
   id="rect1"
   x="131.12999" />&#10;<path
   style="fill:#4ebfed;stroke-width:0.495848"
   d="m 345.43671,167.17059 19.78333,-42.49958 19.78331,42.49958 v 190.97017 c 0,6.77972 -5.49548,12.27519 -12.2752,12.27519 h -15.01723 c -6.77972,0 -12.2752,-5.49547 -12.2752,-12.27519 V 167.17059 Z"
   id="path1" />&#10;<path
   style="fill:#ff6f52;stroke-width:0.495848"
   d="m 385.00186,338.00539 v 20.13437 c 0,6.77874 -5.49696,12.2757 -12.27569,12.2757 h -15.01773 c -6.77873,0 -12.26925,-5.49696 -12.26925,-12.2757 v -20.13437 z"
   id="path2" />&#10;<rect
   x="365.67917"
   y="167.17058"
   style="fill:#97e1f7;stroke-width:0.495848"
   width="7.3608546"
   height="170.8338"
   id="rect2" />&#10;<path
   style="fill:#3ba4bc;stroke-width:0.495848"
   d="m 345.43671,358.14076 c 0,6.77972 5.49548,12.27519 12.2752,12.27519 h 3.74365 c -3.39903,0 -6.15545,-5.49547 -6.15545,-12.27519 V 167.17059 l 9.92042,-42.49958 -19.78332,42.49958 v 190.97017 z"
   id="path3" />&#10;<polygon
   style="fill:#fcd577"
   points="432.208,93.91 472.096,8.195 511.996,93.91 "
   id="polygon3"
   transform="matrix(0.4958474,0,0,0.4958474,131.12998,120.60605)" />&#10;<path
   style="fill:#e25749;stroke-width:0.495848"
   d="m 361.45705,370.41496 h -3.74812 c -6.77872,0 -12.26924,-5.49696 -12.26924,-12.27569 v -20.13388 h 9.85844 v 20.13437 c -5e-4,6.77874 2.75988,12.2752 6.15892,12.2752 z"
   id="path4" />&#10;<polygon
   style="fill:#eac36e"
   points="432.208,93.91 472.096,8.195 452.09,93.91 "
   id="polygon4"
   transform="matrix(0.4958474,0,0,0.4958474,131.12998,120.60605)" />&#10;<rect
   x="345.43472"
   y="333.40192"
   style="fill:#fcd577;stroke-width:0.495848"
   width="39.569118"
   height="9.2019358"
   id="rect4" />&#10;<g
   id="g13"
   transform="matrix(0.4958474,0,0,0.4958474,131.12998,120.60605)">&#10;	<rect
   x="76.917999"
   y="72.858002"
   style="fill:#415e72"
   width="217.12"
   height="18.558001"
   id="rect5" />&#10;	<rect
   x="268.27899"
   y="168.287"
   style="fill:#415e72"
   width="56.291"
   height="18.558001"
   id="rect6" />&#10;	<rect
   x="46.393002"
   y="168.287"
   style="fill:#415e72"
   width="209.511"
   height="18.558001"
   id="rect7" />&#10;	<rect
   x="46.393002"
   y="264.39499"
   style="fill:#415e72"
   width="278.177"
   height="18.558001"
   id="rect8" />&#10;	<rect
   x="121.681"
   y="216.341"
   style="fill:#415e72"
   width="202.892"
   height="18.558001"
   id="rect9" />&#10;	<rect
   x="46.393002"
   y="216.341"
   style="fill:#415e72"
   width="62.911999"
   height="18.558001"
   id="rect10" />&#10;	<rect
   x="46.393002"
   y="408.556"
   style="fill:#415e72"
   width="278.177"
   height="18.558001"
   id="rect11" />&#10;	<rect
   x="244.15401"
   y="360.50201"
   style="fill:#415e72"
   width="80.416"
   height="18.558001"
   id="rect12" />&#10;	<rect
   x="46.393002"
   y="360.50201"
   style="fill:#415e72"
   width="185.38499"
   height="18.558001"
   id="rect13" />&#10;</g>&#10;</svg>
