<?xml version="1.0" encoding="UTF-8" standalone="no"?>
<!-- Uploaded to: SVG Repo, www.svgrepo.com, Generator: SVG Repo Mixer Tools -->

<svg
   width="800px"
   height="800px"
   viewBox="0 0 32 32"
   fill="none"
   version="1.1"
   id="svg8"
   sodipodi:docname="student 2.svg"
   inkscape:version="1.3 (0e150ed6c4, 2023-07-21)"
   xmlns:inkscape="http://www.inkscape.org/namespaces/inkscape"
   xmlns:sodipodi="http://sodipodi.sourceforge.net/DTD/sodipodi-0.dtd"
   xmlns="http://www.w3.org/2000/svg"
   xmlns:svg="http://www.w3.org/2000/svg">
  <defs
     id="defs8" />
  <sodipodi:namedview
     id="namedview8"
     pagecolor="#ffffff"
     bordercolor="#000000"
     borderopacity="0.25"
     inkscape:showpageshadow="2"
     inkscape:pageopacity="0.0"
     inkscape:pagecheckerboard="0"
     inkscape:deskcolor="#d1d1d1"
     inkscape:zoom="0.97125"
     inkscape:cx="399.4852"
     inkscape:cy="400"
     inkscape:window-width="1920"
     inkscape:window-height="991"
     inkscape:window-x="-9"
     inkscape:window-y="-9"
     inkscape:window-maximized="1"
     inkscape:current-layer="svg8" />
  <circle
     style="fill:#50e3c2;stroke-width:0.04;fill-opacity:1"
     id="path9"
     cx="16.164736"
     cy="15.958815"
     r="14.764479" />
  <path
     d="M 21.578517,9.8139999 20.521446,8.3855311 c -0.068,-0.090664 -0.156554,-0.1638595 -0.258346,-0.213535 -0.101846,-0.049676 -0.214053,-0.074408 -0.327329,-0.072159 h -6.999534 c -0.103205,-7.7e-6 -0.205129,0.022339 -0.298837,0.065488 -0.09371,0.043154 -0.176915,0.1060934 -0.243987,0.1844874 l -1.228501,1.4284828 c -0.1055,0.1313696 -0.161153,0.2958083 -0.157132,0.4642533 v 5.206805 c 0.0019,1.243918 0.496888,2.4364 1.376488,3.315992 0.879662,0.879653 2.072085,1.374623 3.316071,1.376552 h 1.328478 c 1.243918,-0.002 2.43641,-0.496899 3.316076,-1.376552 0.879571,-0.879592 1.374537,-2.072074 1.376475,-3.315992 v -5.206805 c 0,-0.154546 -0.05014,-0.3049143 -0.142851,-0.4285491 z"
     fill="#ffcc80"
     id="path1"
     style="stroke-width:0.714235" />
  <path
     d="m 26.20678,24.084418 -2.856946,-3.571185 c -0.08286,-0.105638 -0.193852,-0.18585 -0.320126,-0.231271 -0.126356,-0.04548 -0.262916,-0.05444 -0.394119,-0.02583 l -6.271011,1.414175 -6.271016,-1.42847 C 9.9623783,20.213281 9.8257804,20.222195 9.6994532,20.26768 9.573127,20.313097 9.4621694,20.393315 9.379325,20.498949 l -2.8569522,3.571187 c -0.082902,0.104568 -0.1348698,0.230201 -0.1500191,0.362764 -0.015154,0.132492 0.00714,0.266694 0.06431,0.387189 0.055828,0.124202 0.1459973,0.22991 0.2598829,0.304549 0.1138924,0.07464 0.246755,0.115205 0.382931,0.116852 H 25.649674 c 0.134623,-3.56e-4 0.266408,-0.03877 0.380122,-0.110855 0.1137,-0.07198 0.204765,-0.174702 0.262689,-0.296263 0.05715,-0.120494 0.07943,-0.254696 0.0643,-0.387186 -0.01516,-0.132565 -0.06709,-0.258202 -0.149993,-0.362762 z"
     fill="#01579b"
     id="path2"
     style="stroke-width:0.714235" />
  <path
     d="M 25.8568,8.0998018 16.571708,5.2428505 c -0.135778,-0.03572 -0.278481,-0.03572 -0.414261,0 L 6.8723561,8.0998018 c -0.1518323,0.045846 -0.2840804,0.140933 -0.375903,0.2702525 -0.091815,0.1293198 -0.1379767,0.2855244 -0.1312054,0.4439839 -0.0059,0.1603038 0.042286,0.3179432 0.1368701,0.4475131 0.094579,0.129563 0.230034,0.2235213 0.3845237,0.2667254 l 9.2850945,2.5712323 c 0.125702,0.03811 0.259982,0.03811 0.385684,0 l 9.285092,-2.5712323 c 0.1545,-0.043205 0.28991,-0.1371624 0.384557,-0.2667254 C 26.321629,9.1319814 26.369846,8.974342 26.36391,8.8140382 26.37091,8.6555787 26.32449,8.4993741 26.232701,8.3700543 26.140851,8.2407348 26.008649,8.1456483 25.8568,8.0998018 Z"
     fill="#01579b"
     id="path3"
     style="stroke-width:0.714235" />
  <path
     d="m 12.950525,8.0997796 c -0.103139,-6.9e-6 -0.205129,0.022337 -0.298839,0.065489 -0.09371,0.043154 -0.176913,0.1060929 -0.243984,0.1844949 l -1.22849,1.4284744 C 11.068568,9.9076149 11.00778,10.072261 11.007794,10.242492 v 5.206788 c 0.0019,1.243992 0.496889,2.436409 1.376474,3.316066 0.879662,0.879584 2.072085,1.374623 3.316071,1.376483 h 0.664239 V 8.0997796 Z"
     fill="#ffe0b2"
     id="path4"
     style="stroke-width:0.714235" />
  <path
     d="M 10.093562,20.241822 C 9.9623783,20.213259 9.8257804,20.222165 9.6994532,20.267664 9.573127,20.313089 9.4621694,20.3933 9.379325,20.498933 l -2.8569522,3.571195 c -0.082902,0.104568 -0.1348698,0.230201 -0.1500191,0.362766 -0.015154,0.13249 0.00714,0.266692 0.06431,0.387186 0.055828,0.124203 0.1459973,0.229911 0.2598829,0.30455 0.1138924,0.07464 0.246755,0.115204 0.382931,0.116852 H 16.364578 V 21.67029 Z"
     fill="#0277bd"
     id="path5"
     style="stroke-width:0.714235" />
  <path
     d="M 16.157447,5.2428432 6.8723561,8.0997944 C 6.7205238,8.1456483 6.5882757,8.2407275 6.4964531,8.3700469 6.4046379,8.4993741 6.3584764,8.6555787 6.3652477,8.8140308 c -0.0059,0.1603112 0.042286,0.3179506 0.1368701,0.4475131 0.094579,0.1295704 0.230034,0.2235287 0.3845237,0.2667254 l 9.2850945,2.5712397 c 0.06387,0.01043 0.128991,0.01043 0.192842,0 V 5.2428432 c -0.06864,-0.010949 -0.13849,-0.010949 -0.207131,0 z"
     fill="#0277bd"
     id="path6"
     style="stroke-width:0.714235" />
  <path
     d="m 6.8866415,9.5282767 4.1211525,1.1142103 v 4.806793 c 0.0019,1.243992 0.496889,2.436474 1.376474,3.316066 0.879662,0.879584 2.072085,1.374623 3.316071,1.376483 h 1.328478 c 1.24399,-0.0019 2.43641,-0.496899 3.316076,-1.376483 0.879571,-0.879592 1.374611,-2.072074 1.376475,-3.316066 v -4.806793 l 4.121144,-1.1142103 c 0.1545,-0.043204 0.28991,-0.1371624 0.384557,-0.2667254 C 26.321629,9.1319814 26.369846,8.974342 26.36391,8.8140382 26.37091,8.6555787 26.3245,8.4993741 26.232701,8.3700543 26.14085,8.2407348 26.008649,8.1456483 25.8568,8.0998018 L 16.571708,5.2428505 c -0.135778,-0.03572 -0.278481,-0.03572 -0.414261,0 L 6.8723561,8.0998018 c -0.1518323,0.045846 -0.2840804,0.140933 -0.375903,0.2702525 -0.091815,0.1293198 -0.1379767,0.2855244 -0.1312054,0.4439839 -0.0059,0.1603038 0.042286,0.3179432 0.1368701,0.4475131 0.094579,0.129563 0.230034,0.2235213 0.3845237,0.2667254 z M 20.292886,15.44928 c -0.0019,0.865162 -0.346405,1.694255 -0.958071,2.305989 -0.611752,0.611748 -1.44091,0.956225 -2.305998,0.958083 h -1.328478 c -0.865088,-0.0019 -1.694245,-0.346335 -2.305997,-0.958083 -0.611666,-0.611734 -0.956218,-1.440827 -0.958071,-2.305989 v -4.413985 l 3.735465,1.035642 c 0.125702,0.03814 0.259982,0.03814 0.385684,0 l 3.735466,-1.035642 z M 16.364578,6.7070371 23.10699,8.8140382 16.364578,10.642487 9.6221731,8.8140382 Z"
     fill="#263238"
     id="path7"
     style="stroke-width:0.714235" />
  <path
     d="m 23.349834,20.513233 c -0.08286,-0.105638 -0.193852,-0.18585 -0.320126,-0.231271 -0.126356,-0.04548 -0.262916,-0.05444 -0.394119,-0.02583 l -6.271011,1.414175 -6.271016,-1.42847 C 9.9623783,20.213281 9.8257804,20.222195 9.6994532,20.26768 9.573127,20.313097 9.4621694,20.393315 9.379325,20.498949 l -2.8569522,3.571187 c -0.082902,0.104568 -0.1348698,0.230201 -0.1500191,0.362764 -0.015154,0.132492 0.00714,0.266694 0.06431,0.387189 0.055828,0.124202 0.1459973,0.22991 0.2598829,0.304549 0.1138924,0.07464 0.246755,0.115205 0.382931,0.116852 H 25.649674 c 0.134623,-3.56e-4 0.266408,-0.03877 0.380122,-0.110855 0.1137,-0.07198 0.204765,-0.174702 0.262689,-0.296263 0.05715,-0.120494 0.07943,-0.254696 0.0643,-0.387186 -0.01516,-0.132565 -0.06709,-0.258202 -0.149993,-0.362762 z m -14.7847406,3.299775 1.6498896,-2.064148 5.992461,1.349907 c 0.103642,0.02135 0.210562,0.02135 0.314268,0 l 5.992455,-1.335621 1.649891,2.049862 z"
     fill="#263238"
     id="path8"
     style="stroke-width:0.714235"
     inkscape:label="path8" />
</svg>
